<svg width="15" height="15" viewBox="0 0 15 15" fill="none" xmlns="http://www.w3.org/2000/svg">
<path d="M0.392425 11.7644C0.141153 12.0158 0 12.3567 0 12.7121C0 13.0675 0.141153 13.4084 0.392425 13.6598L1.34016 14.6076C1.59156 14.8588 1.93245 15 2.28789 15C2.64333 15 2.98423 14.8588 3.23563 14.6076L7.5 10.3432L4.6568 7.5L0.392425 11.7644ZM14.6076 1.34016L13.6598 0.392425C13.4084 0.141153 13.0675 0 12.7121 0C12.3567 0 12.0158 0.141153 11.7644 0.392425L7.5 4.6568L10.3432 7.5L14.6076 3.23563C14.8588 2.98423 15 2.64333 15 2.28789C15 1.93245 14.8588 1.59156 14.6076 1.34016Z" fill="#B2BBD5"/>
<path d="M14.6076 11.7644C14.8588 12.0158 15 12.3567 15 12.7121C15 13.0675 14.8588 13.4084 14.6076 13.6598L13.6598 14.6076C13.4084 14.8588 13.0675 15 12.7121 15C12.3567 15 12.0158 14.8588 11.7644 14.6076L0.392425 3.23563C0.141153 2.98423 0 2.64333 0 2.28789C0 1.93245 0.141153 1.59156 0.392425 1.34016L1.34016 0.392425C1.59156 0.141153 1.93245 0 2.28789 0C2.64333 0 2.98423 0.141153 3.23563 0.392425L14.6076 11.7644Z" fill="#B2BBD5"/>
</svg>
