<svg width="13" height="13" viewBox="0 0 13 13" fill="none" xmlns="http://www.w3.org/2000/svg">
<path d="M5.28183 2.03105C6.03366 2.03105 6.76223 2.29174 7.3434 2.7687C7.92457 3.24566 8.32238 3.90938 8.46905 4.64676C8.61572 5.38415 8.50218 6.14958 8.14777 6.81263C7.79335 7.47568 7.22 7.99534 6.5254 8.28305C5.83079 8.57076 5.05792 8.60872 4.33847 8.39048C3.61901 8.17223 2.99749 7.71127 2.57979 7.08614C2.1621 6.46102 1.97409 5.7104 2.04778 4.96219C2.12148 4.21398 2.45232 3.51447 2.98395 2.98285C3.285 2.68013 3.64311 2.44013 4.03754 2.27676C4.43197 2.11338 4.8549 2.02986 5.28183 2.03105ZM5.28183 0C2.36524 0 0.00109863 2.36414 0.00109863 5.28073C0.00109863 8.19732 2.36524 10.5615 5.28183 10.5615C8.19842 10.5615 10.5626 8.19732 10.5626 5.28073C10.5626 2.36414 8.19842 0 5.28183 0Z" fill="#EBEEFF"/>
<path d="M12.8196 12.1025L12.1011 12.821C12.0447 12.8777 11.9776 12.9227 11.9038 12.9535C11.8299 12.9842 11.7507 13 11.6707 13C11.5908 13 11.5116 12.9842 11.4377 12.9535C11.3638 12.9227 11.2968 12.8777 11.2404 12.821L8.70921 10.2898C8.65268 10.2331 8.60788 10.1657 8.57739 10.0917C8.54689 10.0176 8.5313 9.93829 8.5315 9.8582V9.44437L9.44547 8.5304H9.85929C9.93938 8.5302 10.0187 8.5458 10.0928 8.57629C10.1668 8.60678 10.2342 8.65158 10.2909 8.70811L12.8221 11.2393C12.9358 11.3543 12.9994 11.5097 12.9989 11.6714C12.9984 11.8332 12.9339 11.9882 12.8196 12.1025Z" fill="#EBEEFF"/>
</svg>
