<svg width="178" height="33" viewBox="0 0 178 33" fill="none" xmlns="http://www.w3.org/2000/svg">
<path d="M0 26.2839V4.91748H4.28796V22.6421H8.70383V26.2839H0Z" fill="white"/>
<path d="M11.6456 26.2839V4.91748H20.2216V9.05045H16.0071V13.1962H20.0489V17.2207H16.0071V22.1318H20.4838V26.2775L11.6456 26.2839Z" fill="white"/>
<path d="M23.0898 26.2839L25.1586 4.91748H32.4171L34.4604 26.2839H30.3963L30.0957 22.827H27.4993L27.2498 26.2839H23.0898ZM27.819 19.4212H29.7631L28.8039 8.55296H28.6024L27.819 19.4212Z" fill="white"/>
<path d="M37.5013 4.92383H44.0851C45.1339 4.92383 45.944 5.15982 46.5153 5.63179C47.1156 6.146 47.5246 6.84709 47.676 7.62174C47.8929 8.69735 47.9894 9.79365 47.9638 10.8905C48.0095 11.8533 47.8515 12.8149 47.5001 13.7128C47.342 14.0515 47.1138 14.3531 46.8305 14.5976C46.5473 14.8422 46.2154 15.0243 45.8566 15.1319C46.1477 15.1769 46.4251 15.2861 46.6685 15.4516C46.9119 15.6171 47.1152 15.8348 47.2635 16.0886C47.5854 16.7363 47.7362 17.4553 47.7016 18.1774L47.644 26.2839H43.4552V17.9287C43.4552 17.3323 43.3401 16.9496 43.1066 16.7838C42.7127 16.5811 42.269 16.4948 41.8276 16.5351V26.2839H37.5013V4.92383ZM42.8892 12.8294C43.4872 12.8294 43.7845 12.1916 43.7845 10.8905C43.7949 10.464 43.7703 10.0374 43.711 9.61488C43.6898 9.39447 43.5926 9.18822 43.436 9.03129C43.27 8.91237 43.0676 8.85487 42.8636 8.86865H41.866V12.823L42.8892 12.8294Z" fill="white"/>
<path d="M51.1422 26.2839V4.91748H55.5549L57.5246 15.1383V4.92386H61.6655V26.2903H57.4766L55.3183 15.5911V26.2839H51.1422Z" fill="white"/>
<path d="M103.045 26.2839V4.91748H111.625V9.05045H107.41V13.1962H111.449V17.2207H107.41V22.1318H111.887V26.2775L103.045 26.2839Z" fill="white"/>
<path d="M115.938 25.0402C115.073 24.0813 114.64 22.5315 114.64 20.3906V18.3018H118.854V20.9614C118.854 22.0244 119.195 22.5559 119.878 22.5559C120.028 22.5722 120.18 22.5496 120.32 22.4905C120.459 22.4313 120.581 22.3374 120.674 22.2179C120.853 21.8688 120.932 21.4768 120.901 21.0858C120.916 20.4997 120.831 19.9154 120.651 19.3573C120.506 18.9427 120.29 18.5564 120.012 18.2157C119.754 17.9095 119.292 17.4322 118.627 16.7838L116.782 14.9437C115.352 13.5533 114.637 12.0119 114.637 10.3196C114.637 8.49551 115.057 7.10723 115.897 6.15477C116.736 5.20232 117.967 4.72503 119.59 4.7229C121.508 4.7229 122.894 5.23314 123.747 6.25363C124.599 7.27412 125.026 8.86863 125.026 11.0372H120.651L120.626 9.57021C120.637 9.32389 120.552 9.08283 120.389 8.89733C120.302 8.81226 120.198 8.74621 120.084 8.70338C119.97 8.66055 119.849 8.64189 119.727 8.64859C119.59 8.63813 119.452 8.65721 119.323 8.70453C119.194 8.75185 119.077 8.8263 118.979 8.92284C118.803 9.13074 118.714 9.3977 118.73 9.66907C118.73 10.3643 119.129 11.0882 119.925 11.8312L122.42 14.2198C122.941 14.715 123.425 15.2479 123.868 15.8143C124.268 16.3593 124.579 16.9643 124.789 17.6065C125.038 18.3987 125.155 19.2259 125.138 20.0557C125.138 22.1605 124.752 23.755 123.98 24.8392C123.208 25.9235 121.929 26.4667 120.143 26.4688C118.203 26.4795 116.801 26.0032 115.938 25.0402Z" fill="white"/>
<path d="M128.306 4.92383H133.979C135.684 4.92383 136.906 5.47447 137.643 6.57574C138.381 7.67702 138.746 9.2896 138.74 11.4135C138.74 13.5395 138.42 15.1393 137.781 16.213C137.141 17.2866 135.977 17.8255 134.289 17.8298H132.546V26.2839H128.306V4.92383ZM132.783 13.9743C133.182 14.0062 133.58 13.9053 133.915 13.6873C134.168 13.4809 134.336 13.1894 134.388 12.8677C134.477 12.3636 134.516 11.8519 134.503 11.3401C134.543 10.6788 134.44 10.0167 134.203 9.39803C134.004 8.9994 133.605 8.80168 133.007 8.80168H132.534V13.9743H132.783Z" fill="white"/>
<path d="M142.993 24.903C142.1 23.8507 141.653 22.3709 141.653 20.4639V10.2941C141.653 8.45299 142.102 7.06471 142.999 6.12926C143.897 5.19381 145.21 4.72503 146.939 4.7229C148.665 4.7229 149.978 5.19169 150.878 6.12926C151.778 7.06683 152.22 8.45512 152.205 10.2941V20.4639C152.205 22.3901 151.756 23.8783 150.859 24.9285C149.961 25.9788 148.648 26.5018 146.919 26.4975C145.199 26.489 143.89 25.9575 142.993 24.903ZM147.706 22.0584C147.856 21.6096 147.923 21.1375 147.904 20.6648V10.2208C147.922 9.8355 147.862 9.45061 147.728 9.08867C147.665 8.94511 147.557 8.82541 147.421 8.74687C147.285 8.66834 147.127 8.63503 146.971 8.65178C146.254 8.65178 145.896 9.19072 145.896 10.2686V20.6903C145.873 21.1643 145.949 21.6379 146.12 22.0807C146.192 22.2347 146.31 22.3629 146.458 22.4479C146.605 22.5329 146.775 22.5706 146.945 22.5559C147.109 22.5658 147.271 22.5227 147.408 22.4331C147.545 22.3435 147.65 22.212 147.706 22.0584Z" fill="white"/>
<path d="M155.684 4.92383H162.268C163.313 4.92383 164.126 5.15982 164.698 5.63179C165.297 6.14744 165.705 6.84788 165.859 7.62174C166.079 8.69702 166.178 9.7933 166.156 10.8905C166.199 11.8539 166.037 12.8155 165.683 13.7128C165.526 14.0541 165.298 14.3582 165.014 14.6051C164.73 14.8519 164.397 15.0358 164.036 15.1446C164.328 15.1892 164.606 15.2982 164.85 15.4638C165.094 15.6293 165.298 15.8471 165.446 16.1014C165.767 16.7494 165.917 17.4683 165.881 18.1902L165.833 26.2711H161.644V17.9287C161.644 17.3323 161.526 16.9496 161.296 16.7838C160.902 16.5811 160.458 16.4948 160.017 16.5351V26.2839H155.684V4.92383ZM161.069 12.8294C161.667 12.8294 161.967 12.1916 161.967 10.8905C161.976 10.464 161.951 10.0375 161.894 9.61488C161.873 9.39447 161.775 9.18822 161.619 9.03129C161.452 8.91286 161.25 8.8554 161.046 8.86865H160.049V12.823L161.069 12.8294Z" fill="white"/>
<path d="M171.17 26.2839V9.02491H168.612V4.92383H177.987V9.02491H175.445V26.2839H171.17Z" fill="white"/>
<path d="M71.741 0C70.1692 0.0563072 68.6793 0.713029 67.5794 1.8343C66.4795 2.95558 65.8539 4.45561 65.8319 6.02406V32.9936H93.0114C94.5832 32.9373 96.0732 32.2806 97.173 31.1593C98.2729 30.038 98.8986 28.538 98.9205 26.9696V0H71.741Z" fill="white"/>
<path d="M72.9049 1.78589C71.5037 1.83644 70.1754 2.42196 69.1947 3.42142C68.214 4.42089 67.6557 5.75792 67.6353 7.1562V31.2014H91.8698C93.2677 31.1461 94.5912 30.5585 95.5678 29.5595C96.5445 28.5605 97.1001 27.2262 97.1203 25.8311V1.78589H72.9049Z" fill="#4B69B0"/>
<path d="M90.1975 6.45142H72.291C71.7507 6.45178 71.2315 6.66036 70.8418 7.03357C70.4521 7.40678 70.2221 7.91574 70.1998 8.45412V8.50196C70.1998 8.50196 70.1998 8.52747 70.1998 8.54023C70.1998 8.55298 70.1998 8.56255 70.1998 8.5753V10.6258H90.2071V14.8003H70.187V27.3236H92.2887C92.8287 27.3232 93.3476 27.1145 93.7368 26.7412C94.1259 26.3679 94.3553 25.8589 94.3767 25.3209V25.273C94.3767 25.273 94.3767 25.2475 94.3767 25.2348C94.3767 25.222 94.3767 25.2124 94.3767 25.1997V23.1491H74.3726V18.9747H94.3831V6.45142H90.1975Z" fill="white"/>
</svg>
